name C:\Users\u0101727\Documents\MyRepositories\upper-imu-dc\Results\main_tracking\Case_46\kinematics.mot
datacolumns 10
datarows 18
range 0.50000000 0.67000000
endheader 
time	clav_prot	clav_elev	scapula_abduction	scapula_elevation	scapula_upward_rot	scapula_winging	plane_elv	shoulder_elv	axial_rot	
          0.50000000	        -24.23298012	         -5.07291157	        -15.19946371	         -4.21813059	         11.49627870	          6.02029077	        -42.02628446	         11.24068768	         60.80275831	
          0.51000000	        -23.64983368	         -4.99778319	        -14.98001907	         -4.25933159	         11.59429827	          6.00245961	        -41.99091426	         11.25887608	         60.86776808	
          0.52000000	        -23.64626117	         -5.01706132	        -14.91351978	         -4.30031678	         11.69273046	          5.98452692	        -41.95493651	         11.27802630	         60.93272333	
          0.53000000	        -23.63716093	         -5.03696929	        -14.83764176	         -4.34121538	         11.79048537	          5.96696580	        -41.91714819	         11.29689470	         60.99694500	
          0.54000000	        -23.62272094	         -5.05753980	        -14.75332413	         -4.38177344	         11.88646793	          5.95005549	        -41.87568978	         11.31527958	         61.05907525	
          0.55000000	        -23.60322853	         -5.07868639	        -14.66167986	         -4.42166762	         11.97963630	          5.93401929	        -41.82799926	         11.33331793	         61.11682993	
          0.56000000	        -23.57881162	         -5.10034307	        -14.56352707	         -4.46059100	         12.06898146	          5.91907441	        -41.77081398	         11.35129800	         61.16693007	
          0.57000000	        -23.54932349	         -5.12250507	        -14.45921155	         -4.49826255	         12.15347208	          5.90545785	        -41.70020445	         11.36960188	         61.20513969	
          0.58000000	        -23.51426099	         -5.14524638	        -14.34850075	         -4.53441709	         12.23198506	          5.89344729	        -41.61164352	         11.38868168	         61.22638281	
          0.59000000	        -23.47257752	         -5.16873323	        -14.23031407	         -4.56877815	         12.30320743	          5.88338450	        -41.50011061	         11.40904062	         61.22492758	
          0.60000000	        -23.42284541	         -5.19320865	        -14.10308853	         -4.60101794	         12.36549080	          5.87570363	        -41.36024570	         11.43122810	         61.19462686	
          0.61000000	        -23.36278458	         -5.21899668	        -13.96406465	         -4.63068572	         12.41667676	          5.87096012	        -41.18651438	         11.45583833	         61.12923562	
          0.62000000	        -23.28519733	         -5.24683490	        -13.80222111	         -4.65720363	         12.45405611	          5.86985157	        -40.97338810	         11.48349122	         61.02262960	
          0.63000000	        -23.47824069	         -5.25413107	        -14.12136264	         -4.68005269	         12.47427582	          5.87122371	        -40.71485301	         11.51485873	         60.86918761	
          0.64000000	        -23.16760625	         -5.30168710	        -13.57230340	         -4.69864244	         12.47845153	          5.88021983	        -40.40737830	         11.54962696	         60.66634352	
          0.65000000	        -23.20804995	         -5.32434189	        -13.63548974	         -4.71905116	         12.48030452	          5.88878614	        -40.04455031	         11.58808071	         60.40799925	
          0.66000000	        -23.24377112	         -5.35141532	        -13.68584602	         -4.74423848	         12.48847109	          5.89722817	        -39.62154687	         11.62970104	         60.08855328	
          0.67000000	        -23.27575208	         -5.38198451	        -13.72616199	         -4.77315353	         12.50143789	          5.90564484	        -39.13616805	         11.67505446	         59.70841934	
